C:\Users\r0593348\3dpredictsim\Results\Batchsim_tmt_linear\Pog_s1_tmt_bCst_d05_k1000_ig24_pas_GRF.mot
nRows=30
nColumns=19

name C:\Users\r0593348\3dpredictsim\Results\Batchsim_tmt_linear\Pog_s1_tmt_bCst_d05_k1000_ig24_pas_GRF.mot
datacolumns 19
datarows 30
range 0.0000000000 0.3204999774
endheader
time 	ground_force_vx	ground_force_vy	ground_force_vz	ground_force_px	ground_force_py	ground_force_pz	1_ground_force_vx	1_ground_force_vy	1_ground_force_vz	1_ground_force_px	1_ground_force_py	1_ground_force_pz	ground_torque_x	ground_torque_y	ground_torque_z	1_ground_torque_x	1_ground_torque_y	1_ground_torque_z
        0.0000000000	      -78.5898560542	       64.2245280552	       29.8323294913	        0.1672001875	        0.0000000000	        0.0381578125	       98.6830088747	      490.3468224151	       -3.7531793625	       -0.3168089958	        0.0000000000	       -0.0335383715	        0.0000000000	        0.0000000000	        0.0000000000	        0.0000000000	        0.0000000000	        0.0000000000	
        0.0110517234	     -125.1372439466	      142.1499965134	       74.4832624324	        0.1748188457	        0.0000000000	        0.0357549367	       80.2298286432	      408.1966668374	       -8.5427828098	       -0.3130495988	        0.0000000000	       -0.0324334899	        0.0000000000	        0.0000000000	        0.0000000000	        0.0000000000	        0.0000000000	        0.0000000000	
        0.0221034467	      -50.7877856919	      286.8766252018	       33.8531339212	        0.1808810379	        0.0000000000	        0.0333166615	       60.7912871953	      319.0234708869	       -9.5659282541	       -0.3072362192	        0.0000000000	       -0.0302361313	        0.0000000000	        0.0000000000	        0.0000000000	        0.0000000000	        0.0000000000	        0.0000000000	
        0.0331551701	      -45.9316425182	      456.9705307124	        4.0535079350	        0.1852111408	        0.0000000000	        0.0334787028	       31.2943590837	      213.1292648235	       -5.9861749115	       -0.2959022767	        0.0000000000	       -0.0249648210	        0.0000000000	        0.0000000000	        0.0000000000	        0.0000000000	        0.0000000000	        0.0000000000	
        0.0442068934	      -79.3884614385	      664.4173893422	       -7.4185607003	        0.1937611363	        0.0000000000	        0.0359969610	       10.9272151401	      139.1411363427	       -8.4827821510	       -0.2802267777	        0.0000000000	       -0.0167013835	        0.0000000000	        0.0000000000	        0.0000000000	        0.0000000000	        0.0000000000	        0.0000000000	
        0.0552586168	     -105.3344950001	      806.2491018054	      -12.8865309534	        0.1999094389	        0.0000000000	        0.0377721132	        1.4696793784	      111.4989632613	      -10.2684018414	       -0.2807427234	        0.0000000000	       -0.0171428846	        0.0000000000	        0.0000000000	        0.0000000000	        0.0000000000	        0.0000000000	        0.0000000000	
        0.0663103402	     -114.0724971470	      862.9277220586	      -14.1885206141	        0.2039867676	        0.0000000000	        0.0388196788	       -2.3475998575	       73.6522176060	       -9.5064554498	       -0.2802748337	        0.0000000000	       -0.0171987492	        0.0000000000	        0.0000000000	        0.0000000000	        0.0000000000	        0.0000000000	        0.0000000000	
        0.0773620635	     -110.8349364949	      863.5564227196	      -14.1291843955	        0.2071273502	        0.0000000000	        0.0394210768	       -8.3895592736	       30.6673570605	       -5.4574701345	       -0.2806171848	        0.0000000000	       -0.0171211633	        0.0000000000	        0.0000000000	        0.0000000000	        0.0000000000	        0.0000000000	        0.0000000000	
        0.0884137869	     -101.7841088167	      842.7801754761	      -14.2839231603	        0.2102677592	        0.0000000000	        0.0397164193	        0.1108029782	       -0.1109532414	        0.0025949947	        0.0000000000	        0.0000000000	        0.0000000000	        0.0000000000	        0.0000000000	        0.0000000000	        0.0000000000	        0.0000000000	        0.0000000000	
        0.0994655102	      -89.3557064193	      809.0728937009	      -14.9602675134	        0.2135358867	        0.0000000000	        0.0398261244	        0.0001242248	       -0.0001024195	       -0.0000070293	        0.0000000000	        0.0000000000	        0.0000000000	        0.0000000000	        0.0000000000	        0.0000000000	        0.0000000000	        0.0000000000	        0.0000000000	
        0.1105172336	      -77.5469503840	      771.0133130571	      -15.3226996803	        0.2172337119	        0.0000000000	        0.0398468155	        0.0000434258	       -0.0000311659	       -0.0000032592	        0.0000000000	        0.0000000000	        0.0000000000	        0.0000000000	        0.0000000000	        0.0000000000	        0.0000000000	        0.0000000000	        0.0000000000	
        0.1215689570	      -67.4829724986	      736.5060788591	      -15.4053429749	        0.2215019307	        0.0000000000	        0.0397517690	        0.0003829001	       -0.0002462898	       -0.0000321923	        0.0000000000	        0.0000000000	        0.0000000000	        0.0000000000	        0.0000000000	        0.0000000000	        0.0000000000	        0.0000000000	        0.0000000000	
        0.1326206803	      -57.6086849259	      703.4196108923	      -15.8584035282	        0.2257422099	        0.0000000000	        0.0396484903	        0.0055639885	       -0.0032799619	       -0.0004966190	        0.0000000000	        0.0000000000	        0.0000000000	        0.0000000000	        0.0000000000	        0.0000000000	        0.0000000000	        0.0000000000	        0.0000000000	
        0.1436724037	      -47.9133917140	      672.3086497942	      -16.3267526064	        0.2298175462	        0.0000000000	        0.0396065162	       -0.0245277865	        0.0134533611	        0.0022794004	        0.0000000000	        0.0000000000	        0.0000000000	        0.0000000000	        0.0000000000	        0.0000000000	        0.0000000000	        0.0000000000	        0.0000000000	
        0.1547241270	      -39.2613299846	      645.3898880246	      -16.8447849760	        0.2339438183	        0.0000000000	        0.0396185371	       -0.0173268919	        0.0089379313	        0.0016634307	        0.0000000000	        0.0000000000	        0.0000000000	        0.0000000000	        0.0000000000	        0.0000000000	        0.0000000000	        0.0000000000	        0.0000000000	
        0.1657758504	      -32.2447982837	      623.3240160568	      -17.5374855125	        0.2381964620	        0.0000000000	        0.0396582546	       -0.0117331134	        0.0057421605	        0.0011586515	        0.0000000000	        0.0000000000	        0.0000000000	        0.0000000000	        0.0000000000	        0.0000000000	        0.0000000000	        0.0000000000	        0.0000000000	
        0.1768275738	      -26.4203888562	      605.9748615787	      -18.1367359010	        0.2425282874	        0.0000000000	        0.0397120046	       -0.0101386537	        0.0047428788	        0.0010225629	        0.0000000000	        0.0000000000	        0.0000000000	        0.0000000000	        0.0000000000	        0.0000000000	        0.0000000000	        0.0000000000	        0.0000000000	
        0.1878792971	      -21.5005461267	      593.3626460442	      -18.5170406713	        0.2472091479	        0.0000000000	        0.0397572524	       -0.0117423961	        0.0052806191	        0.0012053180	        0.0000000000	        0.0000000000	        0.0000000000	        0.0000000000	        0.0000000000	        0.0000000000	        0.0000000000	        0.0000000000	        0.0000000000	
        0.1989310205	      -18.0614081622	      585.3509512369	      -18.6147709842	        0.2522900845	        0.0000000000	        0.0397681289	       -0.0177113017	        0.0076940836	        0.0018385929	        0.0000000000	        0.0000000000	        0.0000000000	        0.0000000000	        0.0000000000	        0.0000000000	        0.0000000000	        0.0000000000	        0.0000000000	
        0.2099827438	      -15.7383288088	      581.4567156195	      -18.6203152699	        0.2577950533	        0.0000000000	        0.0397234575	       -0.0325967900	        0.0137380845	        0.0033991578	        0.0000000000	        0.0000000000	        0.0000000000	        0.0000000000	        0.0000000000	        0.0000000000	        0.0000000000	        0.0000000000	        0.0000000000	
        0.2210344672	      -14.5105346815	      580.3513165651	      -18.4276387798	        0.2635517206	        0.0000000000	        0.0396254479	       -0.0674844997	        0.0277043173	        0.0070282493	        0.0000000000	        0.0000000000	        0.0000000000	        0.0000000000	        0.0000000000	        0.0000000000	        0.0000000000	        0.0000000000	        0.0000000000	
        0.2320861906	      -13.4398432181	      580.9451829063	      -18.2143879177	        0.2694630647	        0.0000000000	        0.0394796083	       -0.1446832824	        0.0580716300	        0.0149625437	        0.0000000000	        0.0000000000	        0.0000000000	        0.0000000000	        0.0000000000	        0.0000000000	        0.0000000000	        0.0000000000	        0.0000000000	
        0.2431379139	      -12.3244130467	      581.7810365490	      -17.9106023260	        0.2754159210	        0.0000000000	        0.0393000049	       -0.2984334594	        0.1175330907	        0.0305247847	        0.0000000000	        0.0000000000	        0.0000000000	        0.0000000000	        0.0000000000	        0.0000000000	        0.0000000000	        0.0000000000	        0.0000000000	
        0.2541896373	      -11.0053263651	      582.0069876099	      -17.5062875769	        0.2813103263	        0.0000000000	        0.0391024651	       -0.5578593437	        0.2163358085	        0.0562021198	        0.0000000000	        0.0000000000	        0.0000000000	        0.0000000000	        0.0000000000	        0.0000000000	        0.0000000000	        0.0000000000	        0.0000000000	
        0.2652413606	       -9.3645402023	      581.0276825025	      -17.0181722828	        0.2871292896	        0.0000000000	        0.0388956148	       -0.9116278655	        0.3492330291	        0.0901260144	        0.0000000000	        0.0000000000	        0.0000000000	        0.0000000000	        0.0000000000	        0.0000000000	        0.0000000000	        0.0000000000	        0.0000000000	
        0.2762930840	       -7.2706133740	      578.4223219450	      -16.6069745921	        0.2928641386	        0.0000000000	        0.0386838247	       -1.2866482489	        0.4883205170	        0.1241692017	        0.0000000000	        0.0000000000	        0.0000000000	        0.0000000000	        0.0000000000	        0.0000000000	        0.0000000000	        0.0000000000	        0.0000000000	
        0.2873448074	       -4.4354723411	      573.8577374057	      -15.9513508291	        0.2985353467	        0.0000000000	        0.0384692552	       -1.5803678326	        0.5956514752	        0.1473711599	        0.0000000000	        0.0000000000	        0.0000000000	        0.0000000000	        0.0000000000	        0.0000000000	        0.0000000000	        0.0000000000	        0.0000000000	
        0.2983965307	       -0.6605081811	      567.9329844224	      -14.7130725401	        0.3042455940	        0.0000000000	        0.0382435032	       -1.7244860831	        0.6465602898	        0.1529603146	        0.0000000000	        0.0000000000	        0.0000000000	        0.0000000000	        0.0000000000	        0.0000000000	        0.0000000000	        0.0000000000	        0.0000000000	
        0.3094482541	        3.6492966410	      560.9474088507	      -12.9460837278	        0.3099865249	        0.0000000000	        0.0380015513	       -1.7073189232	        0.6373950470	        0.1405178909	        0.0000000000	        0.0000000000	        0.0000000000	        0.0000000000	        0.0000000000	        0.0000000000	        0.0000000000	        0.0000000000	        0.0000000000	
        0.3204999774	        7.4294660316	      555.0382836018	      -10.8624397944	        0.3157942989	        0.0000000000	        0.0377315613	       -1.5502450584	        0.5766676668	        0.1146391440	        0.0000000000	        0.0000000000	        0.0000000000	        0.0000000000	        0.0000000000	        0.0000000000	        0.0000000000	        0.0000000000	        0.0000000000	
